solid test.stl
facet normal 0 0 -1
outer loop
vertex -10 10 20
vertex -10 20 20
vertex 0 20 20
endloop
endfacet
facet normal 0 0 -1
outer loop
vertex -10 10 20
vertex 0 20 20
vertex 0 10 20
endloop
endfacet
facet normal 0 0 1
outer loop
vertex -10 20 30
vertex -10 10 30
vertex 0 10 30
endloop
endfacet
facet normal -0 0 1
outer loop
vertex -10 20 30
vertex 0 10 30
vertex 0 20 30
endloop
endfacet
facet normal 0 1 0
outer loop
vertex -10 20 20
vertex -10 20 30
vertex 0 20 30
endloop
endfacet
facet normal 0 1 0
outer loop
vertex -10 20 20
vertex 0 20 30
vertex 0 20 20
endloop
endfacet
facet normal 0 -1 0
outer loop
vertex 0 10 20
vertex 0 10 30
vertex -10 10 30
endloop
endfacet
facet normal 0 -1 0
outer loop
vertex 0 10 20
vertex -10 10 30
vertex -10 10 20
endloop
endfacet
facet normal -1 0 0
outer loop
vertex -10 10 20
vertex -10 10 30
vertex -10 20 30
endloop
endfacet
facet normal -1 0 0
outer loop
vertex -10 10 20
vertex -10 20 30
vertex -10 20 20
endloop
endfacet
facet normal -1 0 0
outer loop
vertex -10 10 20
vertex -10 10 30
vertex -10 20 30
endloop
endfacet
facet normal 1 0 0
outer loop
vertex 0 20 20
vertex 0 10 30
vertex 0 10 20
endloop
endfacet
facet normal 1 0 -0
outer loop
vertex 0 20 20
vertex 0 20 30
vertex 0 10 30
endloop
endfacet
facet normal 0 0 -1
outer loop
vertex -10 10 20
vertex -10 20 20
vertex 0 20 20
endloop
endfacet
facet normal 0 0 -1
outer loop
vertex -10 10 20
vertex 0 20 20
vertex 0 10 20
endloop
endfacet
facet normal 0 0 1
outer loop
vertex -10 20 30
vertex -10 10 30
vertex 0 10 30
endloop
endfacet
facet normal -0 0 1
outer loop
vertex -10 20 30
vertex 0 10 30
vertex 0 20 30
endloop
endfacet
facet normal 0 1 0
outer loop
vertex -10 20 20
vertex -10 20 30
vertex 0 20 30
endloop
endfacet
facet normal 0 1 0
outer loop
vertex -10 20 20
vertex 0 20 30
vertex 0 20 20
endloop
endfacet
facet normal 0 -1 0
outer loop
vertex 0 10 20
vertex 0 10 30
vertex -10 10 30
endloop
endfacet
facet normal 0 -1 0
outer loop
vertex 0 10 20
vertex -10 10 30
vertex -10 10 20
endloop
endfacet
facet normal -1 0 0
outer loop
vertex -10 10 20
vertex -10 10 30
vertex -10 20 30
endloop
endfacet
facet normal -1 0 0
outer loop
vertex -10 10 20
vertex -10 20 30
vertex -10 20 20
endloop
endfacet
facet normal -1 0 0
outer loop
vertex -10 10 20
vertex -10 10 30
vertex -10 20 30
endloop
endfacet
facet normal 1 0 0
outer loop
vertex 0 20 20
vertex 0 10 30
vertex 0 10 20
endloop
endfacet
facet normal 1 0 -0
outer loop
vertex 0 20 20
vertex 0 20 30
vertex 0 10 30
endloop
endfacet
endsolid test.stl
